<?xml version="1.0" encoding="utf-8"?>
<!-- Generator: Adobe Illustrator 16.0.3, SVG Export Plug-In . SVG Version: 6.00 Build 0)  -->
<!DOCTYPE svg PUBLIC "-//W3C//DTD SVG 1.1//EN" "http://www.w3.org/Graphics/SVG/1.1/DTD/svg11.dtd">
<svg version="1.1" id="Layer_1" xmlns="http://www.w3.org/2000/svg" xmlns:xlink="http://www.w3.org/1999/xlink" x="0px" y="0px"
	 width="1129px" height="395px" viewBox="-313 -27.5 1129 395" enable-background="new -313 -27.5 1129 395" xml:space="preserve">
<g>
	<defs>
		<polygon id="SVGID_1_" points="815,367.5 -313,367.5 -313,-27.5 816,-27.5 		"/>
	</defs>
	<clipPath id="SVGID_2_">
		<use xlink:href="#SVGID_1_"  overflow="visible"/>
	</clipPath>
	<g transform="matrix(1 0 0 1 3.051758e-005 0)" clip-path="url(#SVGID_2_)">
		
			<image overflow="visible" width="1192" height="446" xlink:href="../../../../Downloads/Screen shot 2014-01-31 at 5.01.13 PM.png"  transform="matrix(1.0025 0 0 0.9999 -334.105 -48.9014)">
		</image>
	</g>
</g>
<g>
	<g>
		<polygon fill="#4D4D4D" points="116.112,283.979 136,255 106.656,274.343 109.414,277.152 105.578,280.918 80.03,305.993 
			83.97,310.007 109.518,284.932 113.354,281.168 		"/>
	</g>
</g>
<g>
	<rect x="35" y="314" fill="none" width="93" height="44"/>
	<path fill="#333333" d="M49.875,314.043h1.406l-2.438,11.477h-1.406L49.875,314.043z"/>
	<path fill="#333333" d="M58.93,318.465c0.192,0.422,0.276,0.914,0.25,1.478c0.005,0.386-0.083,1-0.266,1.844h-6.133
		c-0.156,0.849-0.101,1.53,0.168,2.043c0.268,0.513,0.795,0.77,1.582,0.77c0.734,0,1.37-0.241,1.906-0.727
		c0.312-0.281,0.56-0.606,0.742-0.978h1.383c-0.104,0.309-0.298,0.649-0.582,1.027s-0.58,0.688-0.887,0.926
		c-0.516,0.417-1.104,0.698-1.766,0.845c-0.359,0.083-0.753,0.125-1.18,0.125c-1.042,0-1.844-0.38-2.406-1.138
		c-0.562-0.758-0.698-1.818-0.406-3.184c0.286-1.344,0.883-2.436,1.789-3.273s1.948-1.258,3.125-1.258
		c0.594,0,1.141,0.141,1.641,0.418C58.39,317.661,58.737,318.021,58.93,318.465z M57.703,320.668
		c0.073-0.609,0.044-1.097-0.086-1.461c-0.24-0.677-0.81-1.016-1.711-1.016c-0.646,0-1.237,0.232-1.773,0.698
		c-0.537,0.467-0.896,1.06-1.078,1.777L57.703,320.668L57.703,320.668z"/>
	<path fill="#333333" d="M62.828,314.598c0.427-0.479,1.109-0.719,2.047-0.719c0.088,0,0.18,0.003,0.273,0.008
		c0.093,0.005,0.198,0.014,0.312,0.023l-0.273,1.281c-0.141-0.012-0.244-0.018-0.309-0.021s-0.126-0.004-0.184-0.004
		c-0.427,0-0.706,0.11-0.836,0.332s-0.292,0.785-0.484,1.691h1.391l-0.234,1.108h-1.406l-1.531,7.219h-1.391l1.531-7.219H60.57
		l0.234-1.108h1.164l0.281-1.313C62.396,315.296,62.588,314.868,62.828,314.598z"/>
	<path fill="#333333" d="M66.852,314.816h1.422l-0.5,2.336h1.336l-0.242,1.147h-1.336l-1.164,5.461
		c-0.062,0.292-0.005,0.487,0.172,0.586c0.099,0.059,0.276,0.086,0.531,0.086c0.067,0,0.141-0.001,0.219-0.004
		s0.172-0.009,0.281-0.02l-0.234,1.108c-0.172,0.048-0.348,0.081-0.527,0.103c-0.179,0.021-0.371,0.031-0.574,0.031
		c-0.656,0-1.066-0.168-1.23-0.504c-0.164-0.337-0.189-0.772-0.074-1.31l1.18-5.539h-1.133l0.242-1.147h1.133L66.852,314.816z"/>
	<path fill="#333333" d="M75,317.152h1.336l-0.305,1.444c0.167-0.28,0.506-0.624,1.02-1.026c0.513-0.403,1.048-0.605,1.605-0.605
		c0.026,0,0.07,0.003,0.133,0.008c0.063,0.006,0.167,0.017,0.312,0.031l-0.312,1.484c-0.083-0.017-0.159-0.026-0.227-0.031
		s-0.144-0.008-0.227-0.008c-0.708,0-1.301,0.228-1.777,0.684s-0.78,0.98-0.91,1.574l-1.016,4.813h-1.406L75,317.152z"/>
	<path fill="#333333" d="M86.492,318.465c0.192,0.422,0.276,0.914,0.25,1.478c0.005,0.386-0.083,1-0.266,1.844h-6.133
		c-0.156,0.849-0.101,1.53,0.168,2.043c0.268,0.513,0.795,0.77,1.582,0.77c0.734,0,1.37-0.241,1.906-0.727
		c0.312-0.281,0.56-0.606,0.742-0.978h1.383c-0.104,0.309-0.298,0.649-0.582,1.027s-0.58,0.688-0.887,0.926
		c-0.516,0.417-1.104,0.698-1.766,0.845c-0.359,0.083-0.753,0.125-1.18,0.125c-1.042,0-1.844-0.38-2.406-1.138
		c-0.562-0.758-0.698-1.818-0.406-3.184c0.286-1.344,0.883-2.436,1.789-3.273s1.948-1.258,3.125-1.258
		c0.594,0,1.141,0.141,1.641,0.418C85.952,317.661,86.299,318.021,86.492,318.465z M85.266,320.668
		c0.073-0.609,0.044-1.097-0.086-1.461c-0.24-0.677-0.81-1.016-1.711-1.016c-0.646,0-1.237,0.232-1.773,0.698
		c-0.537,0.467-0.896,1.06-1.078,1.777L85.266,320.668L85.266,320.668z"/>
	<path fill="#333333" d="M93.789,317.488c0.229,0.183,0.442,0.447,0.641,0.797l0.227-1.055h1.297l-1.617,7.608
		c-0.224,1.063-0.558,1.901-1,2.517c-0.828,1.136-2.052,1.702-3.672,1.702c-0.901,0-1.616-0.201-2.145-0.604
		s-0.738-1.035-0.629-1.896h1.43c-0.011,0.375,0.065,0.664,0.227,0.867c0.25,0.313,0.716,0.47,1.398,0.47
		c1.078,0,1.864-0.381,2.359-1.142c0.292-0.448,0.552-1.247,0.781-2.397c-0.37,0.427-0.775,0.744-1.215,0.952
		s-0.986,0.313-1.637,0.313c-0.906,0-1.632-0.321-2.176-0.965c-0.544-0.645-0.658-1.707-0.34-3.191
		c0.297-1.401,0.871-2.495,1.723-3.281s1.762-1.18,2.73-1.18C92.828,317.004,93.367,317.165,93.789,317.488z M92.164,318.246
		c-0.99,0-1.763,0.464-2.32,1.391c-0.302,0.495-0.537,1.145-0.703,1.945c-0.203,0.942-0.166,1.66,0.113,2.152
		c0.278,0.491,0.741,0.737,1.387,0.737c1.01,0,1.817-0.456,2.422-1.366c0.338-0.517,0.581-1.117,0.727-1.806
		c0.224-1.036,0.174-1.805-0.148-2.305C93.317,318.496,92.825,318.246,92.164,318.246z"/>
	<path fill="#333333" d="M98.078,317.191h1.43l-1.766,8.328h-1.43L98.078,317.191z M98.75,314.043h1.43l-0.344,1.594h-1.43
		L98.75,314.043z"/>
	<path fill="#333333" d="M108.016,321.16c-0.287,1.349-0.852,2.464-1.695,3.344c-0.843,0.88-1.956,1.32-3.336,1.32
		c-1.151,0-1.982-0.391-2.492-1.168c-0.511-0.778-0.628-1.824-0.352-3.137c0.302-1.406,0.898-2.526,1.789-3.359
		c0.891-0.833,1.938-1.25,3.141-1.25c1.078,0,1.913,0.359,2.504,1.078C108.165,318.707,108.312,319.765,108.016,321.16z
		 M106.539,321.199c0.167-0.781,0.177-1.417,0.031-1.906c-0.234-0.771-0.836-1.156-1.805-1.156c-0.859,0-1.554,0.328-2.082,0.984
		c-0.529,0.656-0.892,1.448-1.09,2.375c-0.188,0.891-0.15,1.633,0.113,2.227c0.263,0.595,0.819,0.892,1.668,0.892
		c0.932,0,1.647-0.354,2.145-1.06S106.356,322.063,106.539,321.199z"/>
	<path fill="#333333" d="M110.539,317.152h1.336l-0.25,1.188c0.5-0.489,0.993-0.841,1.48-1.055s1.001-0.32,1.543-0.32
		c1.188,0,1.901,0.414,2.141,1.242c0.135,0.453,0.114,1.102-0.062,1.945l-1.141,5.367h-1.43l1.117-5.273
		c0.109-0.511,0.122-0.922,0.039-1.234c-0.141-0.521-0.539-0.781-1.195-0.781c-0.333,0-0.615,0.034-0.844,0.103
		c-0.412,0.114-0.8,0.344-1.164,0.688c-0.292,0.275-0.504,0.562-0.637,0.854c-0.133,0.293-0.257,0.715-0.371,1.262l-0.93,4.384
		h-1.406L110.539,317.152z"/>
	<path fill="#333333" d="M51.508,333.204h1.367l-0.883,4.164c0.391-0.401,0.821-0.707,1.293-0.918
		c0.471-0.211,0.957-0.316,1.457-0.316c1.042,0,1.811,0.358,2.309,1.074c0.497,0.716,0.598,1.772,0.301,3.168
		c-0.281,1.323-0.836,2.422-1.664,3.297s-1.81,1.313-2.945,1.313c-0.636,0-1.138-0.153-1.508-0.461
		c-0.224-0.184-0.44-0.475-0.648-0.875l-0.227,1.069h-1.297L51.508,333.204z M55.898,340.446c0.188-0.88,0.153-1.609-0.102-2.188
		c-0.255-0.578-0.75-0.867-1.484-0.867c-0.641,0-1.253,0.237-1.836,0.711c-0.583,0.475-0.99,1.256-1.219,2.345
		c-0.167,0.786-0.203,1.425-0.109,1.914c0.172,0.922,0.763,1.383,1.773,1.383c0.76,0,1.393-0.302,1.898-0.906
		C55.325,342.232,55.685,341.436,55.898,340.446z"/>
	<path fill="#333333" d="M66.219,340.36c-0.287,1.349-0.852,2.464-1.695,3.344c-0.843,0.88-1.956,1.32-3.336,1.32
		c-1.151,0-1.982-0.391-2.492-1.168c-0.511-0.778-0.628-1.824-0.352-3.138c0.302-1.406,0.898-2.525,1.789-3.358
		c0.891-0.833,1.938-1.25,3.141-1.25c1.078,0,1.913,0.358,2.504,1.077C66.368,337.907,66.516,338.965,66.219,340.36z
		 M64.742,340.399c0.167-0.781,0.177-1.417,0.031-1.906c-0.234-0.771-0.836-1.156-1.805-1.156c-0.859,0-1.554,0.328-2.082,0.984
		c-0.529,0.655-0.892,1.447-1.09,2.375c-0.188,0.891-0.15,1.633,0.113,2.227c0.263,0.594,0.819,0.892,1.668,0.892
		c0.932,0,1.647-0.354,2.145-1.06C64.22,342.049,64.56,341.264,64.742,340.399z"/>
	<path fill="#333333" d="M70.148,336.354l-1.18,5.555c-0.089,0.427-0.094,0.775-0.016,1.047c0.141,0.5,0.552,0.75,1.234,0.75
		c0.979,0,1.739-0.438,2.281-1.313c0.292-0.469,0.523-1.111,0.695-1.93l0.875-4.109h1.406l-1.773,8.367h-1.328l0.273-1.233
		c-0.25,0.316-0.534,0.586-0.852,0.805c-0.63,0.438-1.328,0.656-2.094,0.656c-1.193,0-1.919-0.398-2.18-1.195
		c-0.146-0.427-0.145-0.997,0.008-1.711l1.211-5.688H70.148L70.148,336.354z"/>
	<path fill="#333333" d="M77.641,336.354h1.336l-0.25,1.188c0.5-0.489,0.993-0.841,1.48-1.055c0.487-0.215,1.001-0.32,1.543-0.32
		c1.188,0,1.901,0.414,2.141,1.242c0.135,0.453,0.114,1.102-0.062,1.944l-1.141,5.367h-1.43l1.117-5.272
		c0.109-0.512,0.122-0.922,0.039-1.234c-0.141-0.521-0.539-0.781-1.195-0.781c-0.333,0-0.615,0.034-0.844,0.103
		c-0.412,0.114-0.8,0.344-1.164,0.688c-0.292,0.276-0.504,0.563-0.637,0.855c-0.133,0.293-0.257,0.715-0.371,1.262l-0.93,4.383
		h-1.406L77.641,336.354z"/>
	<path fill="#333333" d="M91.102,336.61c0.219,0.155,0.445,0.43,0.68,0.819l0.898-4.227h1.352l-2.445,11.516H90.32l0.242-1.164
		c-0.438,0.517-0.905,0.889-1.402,1.117c-0.498,0.229-1.035,0.344-1.613,0.344c-0.933,0-1.656-0.392-2.172-1.176
		s-0.633-1.827-0.352-3.129c0.255-1.219,0.789-2.273,1.602-3.168c0.813-0.894,1.797-1.34,2.953-1.34
		C90.219,336.204,90.727,336.34,91.102,336.61z M88.25,343.79c0.651,0,1.245-0.28,1.781-0.84c0.536-0.561,0.917-1.363,1.141-2.41
		c0.224-1.058,0.174-1.84-0.148-2.348c-0.323-0.509-0.802-0.763-1.438-0.763c-0.708,0-1.34,0.271-1.895,0.813
		s-0.944,1.339-1.168,2.391c-0.193,0.896-0.163,1.646,0.09,2.25C86.866,343.488,87.411,343.79,88.25,343.79z"/>
	<path fill="#333333" d="M99.219,339.649c0.333-0.042,0.581-0.178,0.742-0.406c0.088-0.125,0.156-0.306,0.203-0.539
		c0.104-0.479,0.008-0.827-0.289-1.043s-0.763-0.324-1.398-0.324c-0.734,0-1.297,0.198-1.688,0.594
		c-0.219,0.22-0.398,0.544-0.539,0.978h-1.312c0.245-1.031,0.731-1.749,1.461-2.152c0.729-0.403,1.518-0.604,2.367-0.604
		c0.984,0,1.742,0.188,2.273,0.562c0.531,0.374,0.713,0.958,0.547,1.75l-1.023,4.82c-0.031,0.146-0.027,0.263,0.012,0.352
		s0.155,0.133,0.348,0.133c0.062,0,0.134-0.004,0.215-0.012c0.081-0.008,0.168-0.02,0.262-0.035l-0.227,1.039
		c-0.229,0.063-0.402,0.103-0.52,0.117c-0.118,0.015-0.275,0.023-0.473,0.023c-0.484,0-0.8-0.173-0.945-0.517
		c-0.078-0.183-0.104-0.439-0.078-0.772c-0.37,0.375-0.852,0.699-1.445,0.977c-0.593,0.277-1.214,0.414-1.859,0.414
		c-0.776,0-1.361-0.235-1.754-0.707c-0.394-0.472-0.515-1.062-0.363-1.77c0.167-0.776,0.538-1.379,1.113-1.806
		c0.575-0.427,1.267-0.689,2.074-0.789L99.219,339.649z M96.43,343.806c0.495,0,1-0.113,1.516-0.344
		c0.859-0.38,1.383-1.003,1.57-1.867l0.234-1.133c-0.193,0.109-0.433,0.2-0.719,0.273c-0.287,0.072-0.563,0.125-0.828,0.155
		L97.328,341c-0.526,0.067-0.933,0.175-1.219,0.32c-0.484,0.245-0.784,0.636-0.898,1.172c-0.089,0.406-0.009,0.727,0.238,0.961
		C95.696,343.688,96.023,343.806,96.43,343.806z"/>
	<path fill="#333333" d="M104.375,336.354h1.336l-0.305,1.444c0.167-0.281,0.506-0.624,1.02-1.026
		c0.513-0.403,1.048-0.605,1.605-0.605c0.026,0,0.07,0.003,0.133,0.008s0.167,0.016,0.312,0.031l-0.312,1.484
		c-0.083-0.017-0.159-0.026-0.227-0.031s-0.144-0.008-0.227-0.008c-0.708,0-1.301,0.228-1.777,0.684s-0.78,0.98-0.91,1.574
		l-1.016,4.812h-1.406L104.375,336.354z"/>
	<path fill="#333333" d="M114.891,336.354h1.555c-0.312,0.535-1.013,1.761-2.102,3.672c-0.812,1.438-1.487,2.608-2.023,3.516
		c-1.271,2.136-2.123,3.438-2.555,3.906c-0.433,0.469-1.055,0.703-1.867,0.703c-0.198,0-0.349-0.009-0.453-0.023
		c-0.104-0.016-0.229-0.044-0.375-0.086l0.273-1.281c0.229,0.067,0.397,0.109,0.504,0.125c0.106,0.017,0.202,0.023,0.285,0.023
		c0.26,0,0.461-0.043,0.602-0.129s0.266-0.191,0.375-0.316c0.036-0.042,0.176-0.255,0.418-0.641c0.242-0.387,0.42-0.672,0.535-0.859
		l-1.266-8.609h1.594l0.797,6.813L114.891,336.354z"/>
</g>
<g>
	<rect x="726" y="329.043" fill="none" width="93" height="44"/>
	<path fill="#333333" d="M735.32,332.195h1.336l-0.305,1.444c0.166-0.28,0.506-0.624,1.02-1.026
		c0.513-0.403,1.048-0.605,1.605-0.605c0.024,0,0.069,0.003,0.133,0.008c0.063,0.005,0.166,0.017,0.312,0.031l-0.312,1.484
		c-0.084-0.017-0.159-0.026-0.228-0.031c-0.067-0.005-0.144-0.008-0.227-0.008c-0.709,0-1.302,0.228-1.777,0.684
		s-0.78,0.98-0.91,1.574l-1.016,4.812h-1.406L735.32,332.195z"/>
	<path fill="#333333" d="M740.602,332.234h1.431l-1.767,8.327h-1.43L740.602,332.234z M741.273,329.086h1.43l-0.344,1.594h-1.431
		L741.273,329.086z"/>
	<path fill="#333333" d="M748.766,332.531c0.229,0.183,0.442,0.447,0.642,0.797l0.227-1.055h1.297l-1.616,7.608
		c-0.226,1.063-0.559,1.901-1,2.517c-0.828,1.136-2.054,1.702-3.673,1.702c-0.9,0-1.616-0.201-2.145-0.604
		c-0.529-0.403-0.738-1.035-0.629-1.896h1.43c-0.011,0.375,0.064,0.664,0.228,0.867c0.25,0.313,0.716,0.469,1.397,0.469
		c1.078,0,1.864-0.38,2.359-1.141c0.291-0.448,0.552-1.247,0.78-2.397c-0.369,0.427-0.774,0.744-1.215,0.952
		c-0.439,0.208-0.986,0.313-1.637,0.313c-0.906,0-1.632-0.321-2.176-0.965c-0.545-0.645-0.658-1.707-0.34-3.191
		c0.297-1.4,0.87-2.495,1.723-3.281c0.852-0.785,1.762-1.18,2.729-1.18C747.805,332.047,748.344,332.208,748.766,332.531z
		 M747.141,333.289c-0.989,0-1.764,0.464-2.319,1.391c-0.304,0.495-0.537,1.145-0.703,1.945c-0.203,0.942-0.166,1.66,0.112,2.152
		c0.278,0.491,0.74,0.737,1.388,0.737c1.01,0,1.817-0.456,2.422-1.366c0.338-0.517,0.58-1.117,0.727-1.806
		c0.225-1.036,0.175-1.805-0.147-2.305C748.294,333.539,747.802,333.289,747.141,333.289z"/>
	<path fill="#333333" d="M753.734,329.047h1.405l-0.913,4.281c0.427-0.422,0.791-0.719,1.094-0.892
		c0.516-0.297,1.11-0.444,1.789-0.444c1.213,0,1.944,0.425,2.194,1.272c0.136,0.464,0.117,1.106-0.055,1.931l-1.141,5.366h-1.445
		l1.117-5.272c0.13-0.614,0.147-1.065,0.055-1.353c-0.162-0.458-0.594-0.688-1.297-0.688c-0.584,0-1.154,0.2-1.711,0.602
		c-0.558,0.401-0.956,1.159-1.195,2.273l-0.938,4.438h-1.406L753.734,329.047z"/>
	<path fill="#333333" d="M762.742,329.859h1.422l-0.5,2.336H765l-0.242,1.147h-1.336l-1.164,5.461
		c-0.062,0.292-0.006,0.487,0.172,0.586c0.1,0.059,0.275,0.086,0.531,0.086c0.067,0,0.141-0.001,0.219-0.004s0.172-0.009,0.281-0.02
		l-0.234,1.108c-0.172,0.048-0.348,0.081-0.526,0.103c-0.179,0.021-0.371,0.031-0.574,0.031c-0.656,0-1.065-0.168-1.229-0.504
		c-0.164-0.337-0.189-0.772-0.074-1.31l1.18-5.539h-1.133l0.242-1.147h1.133L762.742,329.859z"/>
	<path fill="#333333" d="M770.891,332.195h1.336l-0.305,1.444c0.166-0.28,0.506-0.624,1.021-1.026
		c0.513-0.403,1.048-0.605,1.604-0.605c0.025,0,0.07,0.003,0.133,0.008c0.063,0.005,0.166,0.017,0.313,0.031l-0.313,1.484
		c-0.084-0.017-0.158-0.026-0.227-0.031s-0.145-0.008-0.227-0.008c-0.709,0-1.302,0.228-1.777,0.684
		c-0.477,0.456-0.78,0.98-0.91,1.574l-1.016,4.812h-1.406L770.891,332.195z"/>
	<path fill="#333333" d="M782.383,333.508c0.192,0.422,0.275,0.914,0.25,1.478c0.005,0.386-0.084,1-0.266,1.844h-6.133
		c-0.156,0.849-0.102,1.53,0.168,2.043c0.268,0.513,0.795,0.77,1.582,0.77c0.733,0,1.369-0.241,1.905-0.727
		c0.313-0.281,0.561-0.606,0.742-0.978h1.383c-0.104,0.309-0.299,0.649-0.581,1.027c-0.284,0.378-0.58,0.688-0.888,0.926
		c-0.516,0.417-1.104,0.698-1.766,0.845c-0.359,0.083-0.753,0.125-1.181,0.125c-1.041,0-1.844-0.38-2.405-1.138
		c-0.563-0.758-0.698-1.818-0.406-3.184c0.286-1.344,0.883-2.436,1.789-3.273s1.947-1.258,3.125-1.258
		c0.594,0,1.141,0.141,1.641,0.418C781.843,332.704,782.189,333.065,782.383,333.508z M781.156,335.711
		c0.072-0.609,0.044-1.097-0.086-1.461c-0.24-0.677-0.812-1.016-1.711-1.016c-0.646,0-1.237,0.232-1.773,0.698
		c-0.537,0.467-0.896,1.06-1.078,1.777L781.156,335.711L781.156,335.711z"/>
	<path fill="#333333" d="M789.68,332.531c0.229,0.183,0.442,0.447,0.642,0.797l0.227-1.055h1.297l-1.616,7.608
		c-0.226,1.063-0.559,1.901-1,2.517c-0.828,1.136-2.054,1.702-3.673,1.702c-0.9,0-1.616-0.201-2.145-0.604
		c-0.529-0.403-0.738-1.035-0.629-1.896h1.43c-0.011,0.375,0.063,0.664,0.228,0.867c0.25,0.313,0.716,0.469,1.397,0.469
		c1.078,0,1.864-0.38,2.359-1.141c0.291-0.448,0.552-1.247,0.78-2.397c-0.369,0.427-0.774,0.744-1.215,0.952
		c-0.439,0.208-0.986,0.313-1.637,0.313c-0.906,0-1.632-0.321-2.176-0.965c-0.545-0.645-0.658-1.707-0.34-3.191
		c0.297-1.4,0.87-2.495,1.723-3.281c0.852-0.785,1.762-1.18,2.729-1.18C788.719,332.047,789.258,332.208,789.68,332.531z
		 M788.055,333.289c-0.99,0-1.764,0.464-2.319,1.391c-0.304,0.495-0.537,1.145-0.703,1.945c-0.203,0.942-0.166,1.66,0.112,2.152
		c0.278,0.491,0.74,0.737,1.388,0.737c1.01,0,1.816-0.456,2.422-1.366c0.338-0.517,0.58-1.117,0.727-1.806
		c0.225-1.036,0.175-1.805-0.147-2.305C789.208,333.539,788.716,333.289,788.055,333.289z"/>
	<path fill="#333333" d="M793.969,332.234h1.43l-1.766,8.327h-1.43L793.969,332.234z M794.641,329.086h1.431l-0.345,1.594h-1.43
		L794.641,329.086z"/>
	<path fill="#333333" d="M803.906,336.203c-0.287,1.349-0.853,2.464-1.695,3.344s-1.956,1.32-3.336,1.32
		c-1.151,0-1.982-0.391-2.492-1.168c-0.511-0.778-0.628-1.824-0.352-3.138c0.302-1.405,0.897-2.525,1.789-3.358
		c0.891-0.833,1.938-1.25,3.141-1.25c1.078,0,1.912,0.358,2.504,1.078C804.056,333.75,804.203,334.808,803.906,336.203z
		 M802.43,336.242c0.166-0.781,0.178-1.417,0.031-1.906c-0.234-0.771-0.836-1.156-1.805-1.156c-0.859,0-1.555,0.328-2.082,0.984
		c-0.529,0.656-0.894,1.448-1.09,2.375c-0.188,0.891-0.15,1.633,0.112,2.227c0.264,0.595,0.818,0.892,1.668,0.892
		c0.933,0,1.646-0.354,2.146-1.06C801.907,337.892,802.247,337.105,802.43,336.242z"/>
	<path fill="#333333" d="M806.43,332.195h1.336l-0.25,1.188c0.5-0.489,0.993-0.841,1.48-1.055c0.486-0.214,1.001-0.32,1.543-0.32
		c1.188,0,1.9,0.414,2.141,1.242c0.135,0.453,0.114,1.102-0.062,1.945l-1.142,5.366h-1.43l1.117-5.272
		c0.109-0.511,0.122-0.922,0.039-1.234c-0.141-0.521-0.539-0.78-1.195-0.78c-0.334,0-0.615,0.033-0.844,0.102
		c-0.412,0.114-0.8,0.344-1.164,0.688c-0.292,0.276-0.504,0.563-0.637,0.855s-0.258,0.715-0.371,1.262l-0.93,4.383h-1.406
		L806.43,332.195z"/>
	<path fill="#333333" d="M742.508,348.247h1.367l-0.883,4.164c0.391-0.401,0.82-0.707,1.293-0.918
		c0.471-0.211,0.957-0.316,1.457-0.316c1.041,0,1.811,0.358,2.309,1.074c0.497,0.716,0.599,1.772,0.301,3.168
		c-0.28,1.323-0.836,2.422-1.664,3.297c-0.827,0.875-1.811,1.313-2.944,1.313c-0.636,0-1.14-0.153-1.508-0.461
		c-0.226-0.184-0.44-0.475-0.648-0.875l-0.227,1.069h-1.298L742.508,348.247z M746.898,355.489c0.188-0.88,0.152-1.609-0.103-2.188
		c-0.256-0.578-0.75-0.867-1.483-0.867c-0.642,0-1.254,0.237-1.836,0.711c-0.584,0.475-0.99,1.256-1.22,2.345
		c-0.167,0.786-0.203,1.425-0.108,1.914c0.172,0.922,0.763,1.383,1.772,1.383c0.76,0,1.394-0.302,1.898-0.906
		C746.325,357.275,746.686,356.479,746.898,355.489z"/>
	<path fill="#333333" d="M757.219,355.403c-0.287,1.349-0.852,2.464-1.695,3.344c-0.843,0.88-1.955,1.32-3.336,1.32
		c-1.15,0-1.981-0.391-2.491-1.168c-0.511-0.778-0.628-1.824-0.353-3.138c0.303-1.406,0.898-2.525,1.789-3.358
		s1.938-1.25,3.141-1.25c1.078,0,1.912,0.358,2.505,1.077C757.368,352.95,757.516,354.008,757.219,355.403z M755.742,355.442
		c0.166-0.781,0.177-1.417,0.031-1.906c-0.234-0.771-0.836-1.156-1.806-1.156c-0.858,0-1.554,0.328-2.082,0.984
		c-0.528,0.655-0.893,1.447-1.09,2.375c-0.188,0.891-0.149,1.633,0.113,2.227s0.817,0.892,1.668,0.892
		c0.932,0,1.646-0.354,2.145-1.06C755.22,357.092,755.561,356.307,755.742,355.442z"/>
	<path fill="#333333" d="M761.148,351.396l-1.181,5.556c-0.089,0.427-0.094,0.775-0.016,1.047c0.141,0.5,0.552,0.75,1.233,0.75
		c0.979,0,1.739-0.438,2.281-1.313c0.291-0.469,0.523-1.111,0.695-1.93l0.875-4.109h1.406l-1.773,8.367h-1.328l0.273-1.233
		c-0.25,0.316-0.534,0.586-0.853,0.805c-0.631,0.438-1.327,0.656-2.094,0.656c-1.192,0-1.92-0.398-2.18-1.195
		c-0.146-0.427-0.145-0.997,0.008-1.711l1.211-5.688L761.148,351.396L761.148,351.396z"/>
	<path fill="#333333" d="M768.641,351.396h1.336l-0.25,1.188c0.5-0.489,0.993-0.841,1.48-1.055c0.486-0.214,1.001-0.32,1.543-0.32
		c1.188,0,1.9,0.414,2.141,1.242c0.136,0.453,0.114,1.102-0.062,1.944l-1.142,5.367h-1.43l1.117-5.272
		c0.109-0.512,0.122-0.922,0.039-1.234c-0.141-0.521-0.539-0.781-1.195-0.781c-0.334,0-0.615,0.034-0.844,0.103
		c-0.412,0.114-0.8,0.344-1.164,0.688c-0.292,0.276-0.504,0.563-0.637,0.855s-0.258,0.715-0.371,1.262l-0.93,4.383h-1.406
		L768.641,351.396z"/>
	<path fill="#333333" d="M782.102,351.653c0.22,0.155,0.445,0.43,0.681,0.819l0.897-4.227h1.353l-2.445,11.516h-1.266l0.241-1.164
		c-0.438,0.517-0.904,0.889-1.401,1.117c-0.498,0.229-1.035,0.344-1.613,0.344c-0.933,0-1.655-0.392-2.172-1.176
		c-0.516-0.784-0.633-1.827-0.352-3.129c0.255-1.219,0.788-2.273,1.602-3.168c0.813-0.894,1.797-1.34,2.953-1.34
		C781.219,351.247,781.727,351.383,782.102,351.653z M779.25,358.833c0.65,0,1.244-0.28,1.781-0.84
		c0.536-0.561,0.916-1.363,1.141-2.41c0.225-1.058,0.174-1.84-0.148-2.348c-0.322-0.509-0.803-0.763-1.438-0.763
		c-0.709,0-1.34,0.271-1.895,0.813c-0.556,0.541-0.944,1.339-1.168,2.391c-0.193,0.896-0.164,1.646,0.09,2.25
		C777.865,358.531,778.411,358.833,779.25,358.833z"/>
	<path fill="#333333" d="M790.219,354.692c0.333-0.042,0.58-0.178,0.742-0.406c0.088-0.125,0.156-0.306,0.203-0.539
		c0.104-0.479,0.008-0.827-0.289-1.043s-0.764-0.324-1.398-0.324c-0.733,0-1.297,0.198-1.688,0.594
		c-0.219,0.22-0.398,0.544-0.539,0.978h-1.313c0.244-1.031,0.731-1.749,1.461-2.152s1.519-0.604,2.367-0.604
		c0.984,0,1.742,0.188,2.273,0.562s0.713,0.958,0.547,1.75l-1.023,4.82c-0.03,0.146-0.026,0.263,0.013,0.352
		s0.153,0.133,0.348,0.133c0.063,0,0.134-0.004,0.215-0.012c0.08-0.008,0.169-0.02,0.263-0.035l-0.228,1.039
		c-0.229,0.063-0.401,0.103-0.52,0.117s-0.275,0.023-0.474,0.023c-0.483,0-0.8-0.173-0.944-0.517
		c-0.078-0.183-0.104-0.439-0.078-0.772c-0.37,0.375-0.853,0.699-1.445,0.977s-1.214,0.414-1.858,0.414
		c-0.776,0-1.361-0.235-1.755-0.707s-0.515-1.062-0.362-1.77c0.166-0.776,0.537-1.379,1.112-1.806s1.268-0.689,2.074-0.789
		L790.219,354.692z M787.43,358.849c0.494,0,1-0.113,1.517-0.344c0.858-0.38,1.383-1.003,1.569-1.867l0.234-1.133
		c-0.193,0.109-0.433,0.2-0.719,0.273c-0.287,0.072-0.563,0.125-0.828,0.155l-0.875,0.109c-0.526,0.067-0.934,0.175-1.219,0.32
		c-0.484,0.245-0.784,0.636-0.898,1.172c-0.089,0.406-0.01,0.727,0.238,0.961C786.696,358.73,787.023,358.849,787.43,358.849z"/>
	<path fill="#333333" d="M795.375,351.396h1.336l-0.305,1.445c0.166-0.281,0.506-0.624,1.02-1.026
		c0.514-0.403,1.048-0.605,1.605-0.605c0.024,0,0.07,0.003,0.133,0.008s0.166,0.017,0.313,0.031l-0.313,1.484
		c-0.084-0.017-0.159-0.026-0.227-0.031c-0.068-0.005-0.145-0.008-0.228-0.008c-0.709,0-1.301,0.228-1.776,0.684
		c-0.477,0.456-0.78,0.98-0.91,1.574l-1.017,4.812h-1.405L795.375,351.396z"/>
	<path fill="#333333" d="M805.891,351.396h1.556c-0.313,0.536-1.015,1.762-2.103,3.673c-0.812,1.438-1.486,2.608-2.022,3.516
		c-1.271,2.136-2.123,3.438-2.556,3.906s-1.055,0.703-1.867,0.703c-0.197,0-0.35-0.009-0.452-0.023
		c-0.104-0.016-0.229-0.044-0.375-0.086l0.272-1.281c0.229,0.067,0.396,0.109,0.504,0.125c0.106,0.017,0.201,0.023,0.285,0.023
		c0.26,0,0.461-0.043,0.603-0.129c0.141-0.086,0.266-0.191,0.375-0.316c0.036-0.042,0.176-0.255,0.418-0.641
		c0.241-0.387,0.42-0.672,0.534-0.859l-1.266-8.609h1.594l0.797,6.813L805.891,351.396z"/>
</g>
<g>
	<g>
		<polygon fill="#4D4D4D" points="770.496,309.948 750.394,295.033 758.823,316.463 762.229,314.563 764.451,317.395 
			772.579,327.747 777.442,325.034 769.314,314.681 767.092,311.849 		"/>
	</g>
</g>
<g>
	<rect x="202.5" y="116.804" fill="none" width="98" height="24.5"/>
	<path fill="#333333" d="M221.715,119.996h1.367l-0.234,1.109c0.359-0.38,0.729-0.674,1.109-0.883
		c0.542-0.312,1.133-0.469,1.773-0.469c0.948,0,1.674,0.363,2.18,1.09c0.505,0.727,0.614,1.765,0.328,3.113
		c-0.386,1.823-1.138,3.125-2.258,3.906c-0.708,0.495-1.464,0.742-2.266,0.742c-0.63,0-1.13-0.138-1.5-0.414
		c-0.219-0.156-0.44-0.424-0.664-0.805l-0.906,4.273h-1.406L221.715,119.996z M226.777,124.089c0.141-0.667,0.164-1.239,0.07-1.719
		c-0.167-0.922-0.734-1.383-1.703-1.383c-0.974,0-1.745,0.487-2.312,1.461c-0.302,0.521-0.539,1.183-0.711,1.984
		c-0.136,0.646-0.154,1.195-0.055,1.648c0.177,0.865,0.75,1.297,1.719,1.297c0.656,0,1.26-0.274,1.812-0.824
		C226.149,126.005,226.543,125.183,226.777,124.089z"/>
	<path fill="#333333" d="M231.434,116.847h1.406l-2.438,11.477h-1.406L231.434,116.847z"/>
	<path fill="#333333" d="M238.066,123.253c0.333-0.042,0.581-0.177,0.742-0.406c0.088-0.125,0.156-0.305,0.203-0.539
		c0.104-0.479,0.008-0.827-0.289-1.043c-0.297-0.216-0.763-0.324-1.398-0.324c-0.734,0-1.297,0.198-1.688,0.594
		c-0.219,0.219-0.397,0.544-0.539,0.977h-1.312c0.245-1.031,0.731-1.749,1.461-2.152c0.729-0.403,1.518-0.605,2.367-0.605
		c0.984,0,1.742,0.188,2.272,0.562c0.531,0.374,0.713,0.958,0.547,1.75l-1.023,4.82c-0.031,0.146-0.027,0.263,0.012,0.353
		c0.039,0.089,0.155,0.133,0.348,0.133c0.062,0,0.134-0.004,0.215-0.012c0.081-0.008,0.168-0.02,0.262-0.035l-0.227,1.039
		c-0.229,0.062-0.402,0.102-0.52,0.117s-0.275,0.023-0.473,0.023c-0.484,0-0.8-0.172-0.945-0.516
		c-0.078-0.182-0.104-0.44-0.078-0.773c-0.37,0.375-0.852,0.701-1.445,0.977c-0.593,0.276-1.214,0.414-1.859,0.414
		c-0.776,0-1.361-0.236-1.754-0.707c-0.394-0.471-0.515-1.061-0.363-1.77c0.167-0.776,0.538-1.377,1.113-1.805
		c0.575-0.427,1.267-0.69,2.074-0.789L238.066,123.253z M235.277,127.41c0.495,0,1-0.114,1.516-0.344
		c0.859-0.38,1.383-1.002,1.57-1.867l0.234-1.133c-0.193,0.109-0.433,0.201-0.719,0.273c-0.287,0.073-0.562,0.125-0.828,0.156
		l-0.875,0.109c-0.526,0.068-0.933,0.175-1.219,0.32c-0.484,0.245-0.784,0.636-0.898,1.172c-0.089,0.406-0.009,0.727,0.238,0.961
		C234.544,127.292,234.871,127.41,235.277,127.41z"/>
	<path fill="#333333" d="M248.41,119.957h1.555c-0.312,0.537-1.013,1.761-2.102,3.672c-0.812,1.438-1.487,2.609-2.023,3.516
		c-1.271,2.135-2.123,3.438-2.555,3.906c-0.433,0.469-1.055,0.703-1.867,0.703c-0.198,0-0.349-0.008-0.453-0.023
		c-0.104-0.016-0.229-0.044-0.375-0.086l0.273-1.281c0.229,0.067,0.397,0.109,0.504,0.125c0.106,0.016,0.202,0.022,0.285,0.022
		c0.26,0,0.461-0.043,0.602-0.129s0.266-0.191,0.375-0.316c0.036-0.042,0.176-0.255,0.418-0.641c0.242-0.386,0.42-0.672,0.535-0.859
		l-1.266-8.609h1.594l0.797,6.812L248.41,119.957z"/>
	<path fill="#333333" d="M251.855,116.808h1.406l-0.914,4.281c0.427-0.422,0.792-0.719,1.094-0.891
		c0.516-0.297,1.112-0.445,1.789-0.445c1.213,0,1.945,0.425,2.195,1.273c0.135,0.464,0.117,1.107-0.055,1.93l-1.141,5.367h-1.445
		l1.117-5.273c0.13-0.614,0.148-1.065,0.055-1.352c-0.162-0.458-0.594-0.688-1.297-0.688c-0.583,0-1.154,0.201-1.711,0.602
		c-0.558,0.401-0.956,1.159-1.195,2.273l-0.938,4.438h-1.406L251.855,116.808z"/>
	<path fill="#333333" d="M266.285,121.269c0.192,0.422,0.276,0.914,0.25,1.477c0.005,0.386-0.083,1-0.266,1.844h-6.133
		c-0.156,0.849-0.101,1.53,0.168,2.043c0.268,0.513,0.795,0.77,1.582,0.77c0.734,0,1.37-0.242,1.906-0.727
		c0.312-0.281,0.56-0.606,0.742-0.977h1.383c-0.104,0.308-0.298,0.65-0.582,1.027c-0.284,0.378-0.58,0.687-0.887,0.926
		c-0.516,0.417-1.104,0.698-1.766,0.844c-0.359,0.083-0.753,0.125-1.18,0.125c-1.042,0-1.844-0.379-2.406-1.137
		c-0.562-0.758-0.698-1.819-0.406-3.184c0.286-1.344,0.883-2.435,1.789-3.273c0.906-0.838,1.948-1.258,3.125-1.258
		c0.594,0,1.141,0.14,1.641,0.418C265.746,120.466,266.092,120.827,266.285,121.269z M265.059,123.472
		c0.073-0.609,0.044-1.096-0.086-1.461c-0.24-0.677-0.81-1.016-1.711-1.016c-0.646,0-1.237,0.233-1.772,0.699
		c-0.537,0.466-0.896,1.059-1.078,1.777L265.059,123.472L265.059,123.472z"/>
	<path fill="#333333" d="M272.762,123.253c0.333-0.042,0.581-0.177,0.742-0.406c0.088-0.125,0.156-0.305,0.203-0.539
		c0.104-0.479,0.008-0.827-0.289-1.043c-0.297-0.216-0.763-0.324-1.398-0.324c-0.734,0-1.297,0.198-1.688,0.594
		c-0.219,0.219-0.398,0.544-0.539,0.977h-1.312c0.245-1.031,0.731-1.749,1.461-2.152c0.729-0.403,1.518-0.605,2.367-0.605
		c0.984,0,1.742,0.188,2.273,0.562s0.713,0.958,0.547,1.75l-1.023,4.82c-0.031,0.146-0.027,0.263,0.012,0.353
		c0.039,0.089,0.155,0.133,0.348,0.133c0.062,0,0.134-0.004,0.215-0.012c0.081-0.008,0.168-0.02,0.262-0.035l-0.227,1.039
		c-0.229,0.062-0.402,0.102-0.52,0.117c-0.118,0.015-0.275,0.023-0.473,0.023c-0.484,0-0.8-0.172-0.945-0.516
		c-0.078-0.182-0.104-0.44-0.078-0.773c-0.37,0.375-0.852,0.701-1.445,0.977c-0.593,0.276-1.214,0.414-1.859,0.414
		c-0.776,0-1.361-0.236-1.754-0.707c-0.394-0.471-0.515-1.061-0.363-1.77c0.167-0.776,0.538-1.377,1.113-1.805
		c0.575-0.427,1.267-0.69,2.074-0.789L272.762,123.253z M269.973,127.41c0.495,0,1-0.114,1.516-0.344
		c0.859-0.38,1.383-1.002,1.57-1.867l0.234-1.133c-0.193,0.109-0.433,0.201-0.719,0.273c-0.287,0.073-0.563,0.125-0.828,0.156
		l-0.875,0.109c-0.526,0.068-0.933,0.175-1.219,0.32c-0.484,0.245-0.784,0.636-0.898,1.172c-0.089,0.406-0.009,0.727,0.238,0.961
		C269.239,127.292,269.566,127.41,269.973,127.41z"/>
	<path fill="#333333" d="M282.441,120.214c0.219,0.156,0.445,0.43,0.68,0.82l0.898-4.227h1.352l-2.445,11.516h-1.266l0.242-1.164
		c-0.438,0.516-0.905,0.888-1.402,1.117c-0.498,0.229-1.035,0.344-1.613,0.344c-0.933,0-1.656-0.392-2.172-1.176
		c-0.516-0.784-0.633-1.827-0.352-3.129c0.255-1.219,0.789-2.274,1.602-3.168c0.812-0.893,1.797-1.34,2.953-1.34
		C281.559,119.808,282.066,119.944,282.441,120.214z M279.59,127.394c0.651,0,1.245-0.28,1.781-0.84s0.917-1.363,1.141-2.41
		c0.224-1.057,0.174-1.84-0.147-2.348c-0.323-0.508-0.802-0.762-1.438-0.762c-0.708,0-1.34,0.271-1.895,0.812
		c-0.555,0.542-0.944,1.339-1.168,2.391c-0.193,0.896-0.163,1.646,0.09,2.25C278.206,127.092,278.751,127.394,279.59,127.394z"/>
</g>
<g>
	<g>
		<polygon fill="#4D4D4D" points="182.041,88.041 149.737,74.196 174.439,99.197 176.656,95.943 181.097,98.97 210.679,119.129 
			213.847,114.48 184.265,94.321 179.824,91.295 		"/>
	</g>
</g>
<g>
	<rect x="525" y="82" fill="none" width="90" height="47.054"/>
	<path fill="#333333" d="M531.508,92.41l6.234-6h-4.594l0.266-1.258h6.484l-0.242,1.148l-6.195,5.961h5.078l-0.266,1.258h-7
		L531.508,92.41z"/>
	<path fill="#333333" d="M548.047,89.16c-0.286,1.349-0.852,2.464-1.695,3.344s-1.955,1.32-3.336,1.32
		c-1.15,0-1.98-0.389-2.492-1.168c-0.511-0.778-0.627-1.824-0.352-3.137c0.302-1.406,0.898-2.526,1.789-3.359s1.938-1.25,3.141-1.25
		c1.078,0,1.913,0.359,2.504,1.078C548.197,86.707,548.344,87.765,548.047,89.16z M546.57,89.199
		c0.167-0.781,0.177-1.417,0.031-1.906c-0.234-0.771-0.837-1.156-1.806-1.156c-0.858,0-1.554,0.328-2.082,0.984
		c-0.528,0.656-0.892,1.448-1.09,2.375c-0.188,0.891-0.149,1.633,0.113,2.227c0.262,0.594,0.818,0.891,1.668,0.891
		c0.933,0,1.646-0.354,2.145-1.059C546.048,90.849,546.388,90.064,546.57,89.199z"/>
	<path fill="#333333" d="M556.945,89.16c-0.286,1.349-0.853,2.464-1.695,3.344c-0.844,0.88-1.956,1.32-3.336,1.32
		c-1.151,0-1.981-0.389-2.492-1.168c-0.511-0.778-0.628-1.824-0.352-3.137c0.302-1.406,0.897-2.526,1.789-3.359
		c0.891-0.833,1.938-1.25,3.141-1.25c1.078,0,1.913,0.359,2.504,1.078C557.095,86.707,557.242,87.765,556.945,89.16z
		 M555.469,89.199c0.167-0.781,0.178-1.417,0.031-1.906c-0.234-0.771-0.836-1.156-1.805-1.156c-0.859,0-1.555,0.328-2.082,0.984
		c-0.528,0.656-0.893,1.448-1.09,2.375c-0.188,0.891-0.149,1.633,0.112,2.227c0.263,0.594,0.819,0.891,1.668,0.891
		c0.934,0,1.647-0.354,2.146-1.059C554.946,90.849,555.286,90.064,555.469,89.199z"/>
	<path fill="#333333" d="M559.469,85.152h1.392l-0.25,1.188c0.422-0.411,0.786-0.711,1.094-0.898
		c0.531-0.317,1.091-0.477,1.68-0.477c0.667,0,1.169,0.164,1.508,0.492c0.188,0.188,0.337,0.464,0.445,0.828
		c0.411-0.448,0.851-0.78,1.316-0.996s0.962-0.324,1.487-0.324c1.125,0,1.806,0.406,2.039,1.219
		c0.125,0.438,0.109,1.026-0.047,1.766l-1.18,5.57h-1.461l1.233-5.812c0.114-0.557,0.056-0.94-0.18-1.148
		c-0.233-0.208-0.552-0.312-0.953-0.312c-0.552,0-1.065,0.185-1.543,0.555c-0.477,0.37-0.806,0.987-0.987,1.853l-1.031,4.867h-1.431
		l1.156-5.461c0.12-0.567,0.142-0.981,0.063-1.242c-0.13-0.391-0.487-0.586-1.07-0.586c-0.531,0-1.06,0.206-1.582,0.617
		c-0.522,0.412-0.899,1.156-1.129,2.234l-0.938,4.438h-1.405L559.469,85.152z"/>
	<path fill="#333333" d="M577.234,85.191h1.43l-1.766,8.328h-1.431L577.234,85.191z M577.906,82.043h1.43l-0.344,1.594h-1.43
		L577.906,82.043z"/>
	<path fill="#333333" d="M580.797,85.152h1.336l-0.25,1.188c0.5-0.489,0.993-0.841,1.48-1.055c0.486-0.213,1.001-0.32,1.543-0.32
		c1.188,0,1.9,0.414,2.141,1.242c0.136,0.453,0.114,1.102-0.062,1.945l-1.142,5.367h-1.43l1.117-5.273
		c0.108-0.51,0.122-0.922,0.039-1.234c-0.142-0.521-0.539-0.781-1.195-0.781c-0.333,0-0.614,0.034-0.844,0.102
		c-0.411,0.115-0.801,0.344-1.164,0.688c-0.292,0.276-0.504,0.562-0.637,0.855c-0.134,0.294-0.258,0.715-0.371,1.262l-0.931,4.383
		h-1.405L580.797,85.152z"/>
	<path fill="#333333" d="M600.516,89.16c-0.285,1.349-0.852,2.464-1.694,3.344c-0.845,0.88-1.956,1.32-3.336,1.32
		c-1.151,0-1.981-0.389-2.492-1.168c-0.511-0.778-0.628-1.824-0.353-3.137c0.303-1.406,0.898-2.526,1.789-3.359
		c0.892-0.833,1.938-1.25,3.142-1.25c1.077,0,1.913,0.359,2.504,1.078C600.666,86.707,600.813,87.765,600.516,89.16z
		 M599.039,89.199c0.167-0.781,0.177-1.417,0.031-1.906c-0.234-0.771-0.836-1.156-1.806-1.156c-0.858,0-1.554,0.328-2.081,0.984
		c-0.528,0.656-0.893,1.448-1.091,2.375c-0.188,0.891-0.148,1.633,0.113,2.227c0.262,0.594,0.819,0.891,1.668,0.891
		c0.933,0,1.647-0.354,2.146-1.059C598.518,90.849,598.855,90.064,599.039,89.199z"/>
	<path fill="#333333" d="M603.039,85.152h1.336l-0.25,1.188c0.5-0.489,0.993-0.841,1.48-1.055c0.486-0.213,1-0.32,1.543-0.32
		c1.188,0,1.9,0.414,2.141,1.242c0.136,0.453,0.114,1.102-0.063,1.945l-1.141,5.367h-1.43l1.117-5.273
		c0.108-0.51,0.121-0.922,0.039-1.234c-0.142-0.521-0.539-0.781-1.195-0.781c-0.333,0-0.614,0.034-0.844,0.102
		c-0.411,0.115-0.801,0.344-1.164,0.688c-0.292,0.276-0.504,0.562-0.638,0.855c-0.133,0.294-0.257,0.715-0.37,1.262l-0.931,4.383
		h-1.406L603.039,85.152z"/>
	<path fill="#333333" d="M550.605,104.353h1.336l-0.306,1.445c0.167-0.281,0.507-0.624,1.021-1.027
		c0.513-0.403,1.048-0.605,1.604-0.605c0.026,0,0.07,0.003,0.134,0.008c0.062,0.005,0.166,0.016,0.312,0.031l-0.312,1.484
		c-0.084-0.016-0.159-0.026-0.228-0.031c-0.067-0.005-0.144-0.008-0.228-0.008c-0.707,0-1.301,0.228-1.776,0.684
		c-0.478,0.456-0.78,0.98-0.91,1.574l-1.016,4.812h-1.406L550.605,104.353z"/>
	<path fill="#333333" d="M562.098,105.665c0.192,0.422,0.276,0.914,0.25,1.477c0.006,0.386-0.083,1-0.266,1.844h-6.133
		c-0.156,0.849-0.102,1.53,0.168,2.043c0.269,0.513,0.796,0.77,1.582,0.77c0.734,0,1.37-0.242,1.906-0.727
		c0.312-0.281,0.56-0.606,0.741-0.978h1.384c-0.104,0.308-0.299,0.65-0.582,1.027c-0.284,0.378-0.579,0.687-0.888,0.926
		c-0.516,0.417-1.104,0.698-1.766,0.844c-0.359,0.083-0.753,0.125-1.18,0.125c-1.042,0-1.845-0.379-2.406-1.137
		c-0.563-0.758-0.698-1.819-0.406-3.184c0.286-1.344,0.883-2.435,1.789-3.273s1.948-1.258,3.125-1.258
		c0.594,0,1.142,0.14,1.642,0.418C561.559,104.862,561.905,105.223,562.098,105.665z M560.871,107.868
		c0.073-0.609,0.044-1.096-0.086-1.461c-0.239-0.677-0.811-1.016-1.711-1.016c-0.646,0-1.237,0.233-1.773,0.699
		c-0.536,0.466-0.896,1.059-1.078,1.777L560.871,107.868L560.871,107.868z"/>
	<path fill="#333333" d="M569.395,104.688c0.229,0.183,0.442,0.448,0.642,0.797l0.227-1.055h1.298l-1.617,7.609
		c-0.225,1.062-0.559,1.901-1,2.516c-0.828,1.135-2.053,1.703-3.672,1.703c-0.901,0-1.616-0.202-2.146-0.605
		c-0.528-0.404-0.738-1.035-0.629-1.895h1.43c-0.011,0.375,0.065,0.664,0.228,0.867c0.25,0.312,0.716,0.469,1.397,0.469
		c1.078,0,1.864-0.38,2.359-1.141c0.292-0.448,0.552-1.247,0.78-2.398c-0.369,0.427-0.773,0.745-1.215,0.953
		c-0.439,0.208-0.984,0.312-1.637,0.312c-0.906,0-1.632-0.321-2.176-0.965c-0.544-0.643-0.657-1.707-0.34-3.191
		c0.297-1.401,0.871-2.495,1.723-3.281c0.852-0.786,1.762-1.18,2.73-1.18C568.434,104.204,568.973,104.366,569.395,104.688z
		 M567.77,105.446c-0.988,0-1.763,0.464-2.319,1.391c-0.302,0.495-0.536,1.144-0.703,1.945c-0.203,0.943-0.165,1.66,0.113,2.152
		c0.277,0.492,0.741,0.738,1.387,0.738c1.011,0,1.817-0.456,2.422-1.367c0.339-0.516,0.581-1.117,0.728-1.805
		c0.224-1.036,0.175-1.805-0.148-2.305S568.431,105.446,567.77,105.446z"/>
	<path fill="#333333" d="M573.684,104.392h1.431l-1.767,8.328h-1.43L573.684,104.392z M574.355,101.243h1.43l-0.344,1.594h-1.431
		L574.355,101.243z"/>
	<path fill="#333333" d="M583.621,108.36c-0.286,1.349-0.852,2.464-1.695,3.344s-1.956,1.32-3.336,1.32
		c-1.15,0-1.98-0.389-2.492-1.168c-0.511-0.778-0.628-1.824-0.352-3.137c0.302-1.406,0.898-2.526,1.789-3.359s1.938-1.25,3.141-1.25
		c1.078,0,1.913,0.359,2.504,1.078C583.771,105.907,583.918,106.965,583.621,108.36z M582.145,108.399
		c0.168-0.781,0.178-1.417,0.031-1.906c-0.233-0.771-0.836-1.156-1.805-1.156c-0.859,0-1.554,0.328-2.082,0.984
		c-0.528,0.656-0.893,1.448-1.09,2.375c-0.188,0.891-0.149,1.633,0.113,2.227c0.262,0.594,0.818,0.891,1.668,0.891
		c0.933,0,1.646-0.353,2.145-1.059C581.622,110.049,581.962,109.264,582.145,108.399z"/>
	<path fill="#333333" d="M586.145,104.353h1.336l-0.25,1.188c0.5-0.489,0.993-0.841,1.48-1.055c0.487-0.213,1.001-0.32,1.543-0.32
		c1.188,0,1.901,0.414,2.141,1.242c0.137,0.453,0.114,1.102-0.062,1.945l-1.141,5.367h-1.431l1.117-5.272
		c0.109-0.51,0.122-0.922,0.039-1.234c-0.141-0.521-0.539-0.781-1.195-0.781c-0.333,0-0.613,0.034-0.844,0.102
		c-0.411,0.115-0.8,0.344-1.164,0.688c-0.292,0.276-0.504,0.562-0.637,0.855c-0.133,0.294-0.257,0.715-0.371,1.262l-0.93,4.383
		h-1.406L586.145,104.353z"/>
</g>
<g>
	<rect x="627" y="82" fill="none" width="122" height="47.054"/>
	<path fill="#333333" d="M636.785,88.449c0.333-0.042,0.581-0.177,0.742-0.406c0.089-0.125,0.155-0.305,0.203-0.539
		c0.104-0.479,0.008-0.827-0.289-1.043s-0.764-0.324-1.398-0.324c-0.734,0-1.297,0.198-1.688,0.594
		c-0.22,0.219-0.398,0.544-0.539,0.977h-1.313c0.245-1.031,0.731-1.749,1.461-2.152c0.729-0.403,1.52-0.605,2.367-0.605
		c0.984,0,1.742,0.188,2.273,0.562c0.53,0.374,0.714,0.958,0.547,1.75l-1.023,4.82c-0.031,0.146-0.027,0.263,0.012,0.352
		s0.155,0.133,0.349,0.133c0.062,0,0.134-0.004,0.215-0.012c0.081-0.008,0.168-0.02,0.262-0.035l-0.227,1.039
		c-0.229,0.062-0.402,0.102-0.521,0.117c-0.117,0.015-0.273,0.023-0.473,0.023c-0.484,0-0.8-0.172-0.945-0.516
		c-0.078-0.182-0.104-0.44-0.078-0.773c-0.369,0.375-0.852,0.701-1.444,0.977c-0.593,0.276-1.214,0.414-1.859,0.414
		c-0.776,0-1.36-0.236-1.754-0.707c-0.394-0.471-0.515-1.061-0.363-1.77c0.167-0.776,0.538-1.377,1.113-1.805
		c0.575-0.427,1.267-0.69,2.074-0.789L636.785,88.449z M633.996,92.605c0.495,0,1-0.114,1.516-0.344
		c0.859-0.38,1.383-1.002,1.57-1.867l0.234-1.133c-0.192,0.109-0.434,0.201-0.72,0.273c-0.286,0.073-0.562,0.125-0.827,0.156
		l-0.875,0.109c-0.526,0.068-0.934,0.175-1.22,0.32c-0.483,0.245-0.784,0.636-0.897,1.172c-0.09,0.406-0.01,0.727,0.237,0.961
		S633.59,92.605,633.996,92.605z"/>
	<path fill="#333333" d="M646.465,85.41c0.219,0.156,0.445,0.43,0.68,0.82l0.898-4.227h1.352l-2.444,11.516h-1.267l0.242-1.164
		c-0.438,0.516-0.904,0.888-1.401,1.117s-1.035,0.344-1.613,0.344c-0.933,0-1.656-0.392-2.172-1.176
		c-0.517-0.784-0.633-1.827-0.353-3.129c0.256-1.219,0.789-2.274,1.603-3.168c0.812-0.893,1.797-1.34,2.953-1.34
		C645.582,85.004,646.09,85.14,646.465,85.41z M643.613,92.59c0.65,0,1.244-0.28,1.781-0.84c0.535-0.56,0.916-1.363,1.141-2.41
		c0.224-1.057,0.175-1.84-0.148-2.348c-0.322-0.508-0.802-0.762-1.438-0.762c-0.708,0-1.34,0.271-1.896,0.812
		c-0.555,0.542-0.943,1.339-1.168,2.391c-0.192,0.896-0.163,1.646,0.09,2.25C642.229,92.288,642.773,92.59,643.613,92.59z"/>
	<path fill="#333333" d="M647.254,95.637c0.63-0.021,1.02-0.077,1.164-0.168c0.146-0.091,0.271-0.376,0.375-0.854l2-9.422h1.406
		l-2.031,9.57c-0.13,0.609-0.325,1.065-0.586,1.367c-0.438,0.51-1.112,0.766-2.023,0.766c-0.066,0-0.14-0.003-0.215-0.008
		c-0.074-0.005-0.19-0.016-0.348-0.031L647.254,95.637z M652.527,83.668h-1.406l0.344-1.625h1.406L652.527,83.668z"/>
	<path fill="#333333" d="M655.762,85.152l-1.18,5.555c-0.089,0.427-0.094,0.776-0.016,1.047c0.141,0.5,0.552,0.75,1.233,0.75
		c0.979,0,1.739-0.438,2.281-1.312c0.292-0.469,0.522-1.112,0.695-1.93l0.875-4.109h1.405l-1.772,8.367h-1.328l0.272-1.234
		c-0.25,0.318-0.533,0.586-0.852,0.805c-0.63,0.438-1.328,0.656-2.094,0.656c-1.192,0-1.919-0.398-2.18-1.195
		c-0.146-0.427-0.145-0.997,0.008-1.711l1.211-5.688L655.762,85.152L655.762,85.152z"/>
	<path fill="#333333" d="M662.871,90.895c-0.059,0.469-0.016,0.828,0.125,1.078c0.255,0.453,0.82,0.68,1.695,0.68
		c0.521,0,1.004-0.113,1.448-0.34c0.445-0.227,0.718-0.577,0.816-1.051c0.078-0.359-0.023-0.633-0.306-0.82
		c-0.177-0.114-0.55-0.247-1.116-0.398l-1.056-0.281c-0.677-0.177-1.16-0.375-1.453-0.594c-0.525-0.38-0.716-0.906-0.569-1.578
		c0.167-0.792,0.587-1.432,1.262-1.922c0.675-0.489,1.493-0.734,2.457-0.734c1.261,0,2.091,0.37,2.492,1.109
		c0.25,0.469,0.312,0.974,0.188,1.516h-1.328c0.041-0.317-0.012-0.606-0.156-0.867c-0.245-0.37-0.766-0.555-1.563-0.555
		c-0.531,0-0.953,0.102-1.27,0.305c-0.316,0.203-0.509,0.472-0.582,0.805c-0.078,0.365,0.039,0.656,0.352,0.875
		c0.184,0.13,0.467,0.245,0.853,0.344l0.883,0.227c0.958,0.245,1.586,0.482,1.883,0.711c0.469,0.359,0.62,0.925,0.453,1.695
		c-0.156,0.745-0.574,1.388-1.254,1.93c-0.681,0.542-1.599,0.812-2.754,0.812c-1.245,0-2.066-0.283-2.466-0.848
		c-0.398-0.565-0.526-1.264-0.387-2.098L662.871,90.895L662.871,90.895z"/>
	<path fill="#333333" d="M672.035,82.816h1.422l-0.5,2.336h1.336l-0.242,1.148h-1.336l-1.164,5.461
		c-0.062,0.292-0.005,0.487,0.172,0.586c0.1,0.058,0.276,0.086,0.531,0.086c0.067,0,0.141-0.001,0.219-0.004
		c0.078-0.002,0.172-0.009,0.281-0.02l-0.234,1.109c-0.172,0.047-0.348,0.081-0.526,0.102c-0.181,0.021-0.371,0.031-0.574,0.031
		c-0.656,0-1.065-0.168-1.229-0.504s-0.188-0.772-0.074-1.309l1.18-5.539h-1.133l0.242-1.148h1.133L672.035,82.816z"/>
	<path fill="#333333" d="M680.926,82.816h1.422l-0.5,2.336h1.336l-0.241,1.148h-1.337l-1.163,5.461
		c-0.063,0.292-0.005,0.487,0.172,0.586c0.099,0.058,0.275,0.086,0.53,0.086c0.067,0,0.142-0.001,0.22-0.004
		c0.078-0.002,0.172-0.009,0.28-0.02l-0.233,1.109c-0.172,0.047-0.349,0.081-0.527,0.102c-0.18,0.021-0.371,0.031-0.573,0.031
		c-0.656,0-1.066-0.168-1.23-0.504s-0.188-0.772-0.074-1.309l1.18-5.539h-1.133l0.242-1.148h1.133L680.926,82.816z"/>
	<path fill="#333333" d="M684.582,85.191h1.43l-1.766,8.328h-1.43L684.582,85.191z M685.254,82.043h1.43l-0.344,1.594h-1.43
		L685.254,82.043z"/>
	<path fill="#333333" d="M688.145,85.152h1.392l-0.25,1.188c0.422-0.411,0.786-0.711,1.094-0.898
		c0.531-0.317,1.091-0.477,1.681-0.477c0.666,0,1.168,0.164,1.508,0.492c0.188,0.188,0.336,0.464,0.444,0.828
		c0.411-0.448,0.852-0.78,1.316-0.996c0.466-0.216,0.962-0.324,1.487-0.324c1.125,0,1.806,0.406,2.039,1.219
		c0.125,0.438,0.109,1.026-0.047,1.766l-1.18,5.57h-1.461l1.234-5.812c0.113-0.557,0.055-0.94-0.181-1.148
		c-0.233-0.208-0.552-0.312-0.952-0.312c-0.553,0-1.066,0.185-1.544,0.555c-0.477,0.37-0.806,0.987-0.987,1.853l-1.031,4.867h-1.43
		l1.155-5.461c0.12-0.567,0.142-0.981,0.063-1.242c-0.13-0.391-0.487-0.586-1.07-0.586c-0.53,0-1.059,0.206-1.582,0.617
		c-0.522,0.412-0.898,1.156-1.129,2.234l-0.938,4.438h-1.406L688.145,85.152z"/>
	<path fill="#333333" d="M707.676,86.465c0.192,0.422,0.276,0.914,0.25,1.477c0.005,0.386-0.083,1-0.266,1.844h-6.133
		c-0.156,0.849-0.102,1.53,0.168,2.043c0.269,0.513,0.796,0.77,1.582,0.77c0.733,0,1.369-0.242,1.906-0.727
		c0.312-0.281,0.56-0.606,0.741-0.977h1.384c-0.104,0.308-0.299,0.65-0.582,1.027c-0.284,0.378-0.579,0.687-0.888,0.926
		c-0.516,0.417-1.104,0.698-1.766,0.844c-0.359,0.083-0.753,0.125-1.181,0.125c-1.041,0-1.844-0.379-2.405-1.137
		c-0.563-0.758-0.698-1.819-0.406-3.184c0.286-1.344,0.883-2.435,1.789-3.273c0.906-0.838,1.948-1.258,3.125-1.258
		c0.594,0,1.141,0.14,1.641,0.418C707.137,85.662,707.482,86.022,707.676,86.465z M706.449,88.668
		c0.072-0.609,0.044-1.096-0.086-1.461c-0.239-0.677-0.811-1.016-1.711-1.016c-0.646,0-1.237,0.233-1.773,0.699
		c-0.536,0.466-0.896,1.059-1.078,1.777L706.449,88.668L706.449,88.668z"/>
	<path fill="#333333" d="M709.988,90.895c-0.059,0.469-0.017,0.828,0.125,1.078c0.255,0.453,0.819,0.68,1.694,0.68
		c0.521,0,1.005-0.113,1.449-0.34c0.445-0.227,0.718-0.577,0.816-1.051c0.077-0.359-0.023-0.633-0.306-0.82
		c-0.177-0.114-0.55-0.247-1.117-0.398l-1.055-0.281c-0.677-0.177-1.161-0.375-1.453-0.594c-0.525-0.38-0.716-0.906-0.569-1.578
		c0.167-0.792,0.587-1.432,1.262-1.922c0.675-0.489,1.493-0.734,2.457-0.734c1.261,0,2.091,0.37,2.492,1.109
		c0.25,0.469,0.312,0.974,0.188,1.516h-1.328c0.042-0.317-0.011-0.606-0.155-0.867c-0.245-0.37-0.767-0.555-1.563-0.555
		c-0.531,0-0.954,0.102-1.27,0.305c-0.316,0.203-0.51,0.472-0.582,0.805c-0.078,0.365,0.039,0.656,0.352,0.875
		c0.184,0.13,0.466,0.245,0.852,0.344l0.884,0.227c0.958,0.245,1.586,0.482,1.883,0.711c0.469,0.359,0.62,0.925,0.453,1.695
		c-0.156,0.745-0.574,1.388-1.254,1.93c-0.681,0.542-1.599,0.812-2.755,0.812c-1.244,0-2.065-0.283-2.465-0.848
		c-0.398-0.565-0.526-1.264-0.387-2.098L709.988,90.895L709.988,90.895z"/>
	<path fill="#333333" d="M719.074,82.043h1.406l-2.438,11.477h-1.406L719.074,82.043z"/>
	<path fill="#333333" d="M721.918,85.191h1.43l-1.766,8.328h-1.43L721.918,85.191z M722.59,82.043h1.43l-0.344,1.594h-1.43
		L722.59,82.043z"/>
	<path fill="#333333" d="M730.043,85.41c0.219,0.156,0.445,0.43,0.68,0.82l0.898-4.227h1.352l-2.444,11.516h-1.267l0.242-1.164
		c-0.438,0.516-0.905,0.888-1.402,1.117c-0.496,0.229-1.034,0.344-1.612,0.344c-0.933,0-1.656-0.392-2.172-1.176
		c-0.517-0.784-0.634-1.827-0.353-3.129c0.255-1.219,0.789-2.274,1.603-3.168c0.812-0.893,1.797-1.34,2.952-1.34
		C729.16,85.004,729.668,85.14,730.043,85.41z M727.191,92.59c0.65,0,1.244-0.28,1.78-0.84s0.917-1.363,1.142-2.41
		c0.224-1.057,0.175-1.84-0.148-2.348c-0.323-0.508-0.802-0.762-1.438-0.762c-0.708,0-1.34,0.271-1.896,0.812
		c-0.555,0.542-0.944,1.339-1.168,2.391c-0.192,0.896-0.163,1.646,0.09,2.25C725.808,92.288,726.354,92.59,727.191,92.59z"/>
	<path fill="#333333" d="M740.582,86.465c0.191,0.422,0.275,0.914,0.25,1.477c0.005,0.386-0.083,1-0.266,1.844h-6.134
		c-0.155,0.849-0.101,1.53,0.169,2.043c0.269,0.513,0.795,0.77,1.581,0.77c0.734,0,1.37-0.242,1.906-0.727
		c0.313-0.281,0.56-0.606,0.742-0.977h1.383c-0.104,0.308-0.298,0.65-0.582,1.027c-0.284,0.378-0.579,0.687-0.887,0.926
		c-0.517,0.417-1.104,0.698-1.767,0.844c-0.358,0.083-0.752,0.125-1.18,0.125c-1.042,0-1.844-0.379-2.406-1.137
		c-0.562-0.758-0.697-1.819-0.405-3.184c0.286-1.344,0.883-2.435,1.789-3.273c0.905-0.838,1.947-1.258,3.125-1.258
		c0.594,0,1.141,0.14,1.641,0.418C740.043,85.662,740.39,86.022,740.582,86.465z M739.355,88.668
		c0.072-0.609,0.043-1.096-0.086-1.461c-0.239-0.677-0.811-1.016-1.712-1.016c-0.646,0-1.236,0.233-1.772,0.699
		c-0.536,0.466-0.896,1.059-1.078,1.777L739.355,88.668L739.355,88.668z"/>
	<path fill="#333333" d="M743.316,85.152h1.336l-0.306,1.445c0.167-0.281,0.507-0.624,1.021-1.027
		c0.513-0.403,1.048-0.605,1.604-0.605c0.026,0,0.07,0.003,0.134,0.008c0.062,0.005,0.166,0.016,0.312,0.031l-0.312,1.484
		c-0.084-0.016-0.159-0.026-0.228-0.031c-0.067-0.005-0.144-0.008-0.227-0.008c-0.708,0-1.302,0.228-1.777,0.684
		c-0.478,0.456-0.78,0.98-0.91,1.574l-1.016,4.812h-1.406L743.316,85.152z"/>
	<path fill="#333333" d="M671.746,110.095c-0.059,0.469-0.016,0.828,0.125,1.078c0.255,0.453,0.82,0.68,1.695,0.68
		c0.521,0,1.004-0.113,1.448-0.34c0.445-0.227,0.718-0.577,0.816-1.051c0.078-0.359-0.023-0.633-0.306-0.82
		c-0.177-0.114-0.55-0.247-1.116-0.398l-1.056-0.281c-0.677-0.177-1.16-0.375-1.453-0.594c-0.525-0.38-0.716-0.906-0.569-1.578
		c0.167-0.792,0.587-1.432,1.262-1.922c0.675-0.489,1.493-0.734,2.457-0.734c1.261,0,2.091,0.37,2.492,1.109
		c0.25,0.469,0.312,0.974,0.188,1.516h-1.328c0.041-0.317-0.012-0.606-0.156-0.867c-0.245-0.37-0.766-0.555-1.563-0.555
		c-0.531,0-0.953,0.102-1.27,0.305s-0.509,0.472-0.582,0.805c-0.078,0.365,0.039,0.656,0.352,0.875
		c0.184,0.13,0.467,0.245,0.853,0.344l0.883,0.227c0.958,0.245,1.586,0.482,1.883,0.711c0.469,0.359,0.62,0.925,0.453,1.695
		c-0.156,0.745-0.574,1.388-1.254,1.93c-0.681,0.542-1.599,0.812-2.754,0.812c-1.245,0-2.066-0.283-2.466-0.848
		c-0.398-0.565-0.526-1.264-0.387-2.098h1.352V110.095z"/>
	<path fill="#333333" d="M686.129,107.165h-1.367c0.026-0.516-0.072-0.944-0.297-1.285c-0.224-0.341-0.664-0.512-1.32-0.512
		c-0.896,0-1.63,0.438-2.202,1.312c-0.37,0.568-0.645,1.269-0.82,2.102c-0.183,0.839-0.156,1.544,0.078,2.117
		c0.233,0.573,0.73,0.859,1.492,0.859c0.583,0,1.083-0.178,1.5-0.535c0.417-0.356,0.755-0.845,1.016-1.465h1.367
		c-0.392,1.109-0.953,1.921-1.688,2.434c-0.733,0.513-1.589,0.77-2.562,0.77c-1.095,0-1.882-0.399-2.363-1.199
		c-0.481-0.799-0.595-1.798-0.34-2.996c0.312-1.469,0.913-2.612,1.801-3.43c0.888-0.817,1.884-1.227,2.988-1.227
		c0.942,0,1.66,0.229,2.151,0.688C686.055,105.256,686.243,106.045,686.129,107.165z"/>
	<path fill="#333333" d="M691.91,107.649c0.333-0.042,0.581-0.177,0.742-0.406c0.089-0.125,0.155-0.305,0.203-0.539
		c0.104-0.479,0.008-0.827-0.289-1.043c-0.297-0.216-0.764-0.324-1.398-0.324c-0.734,0-1.297,0.198-1.688,0.594
		c-0.22,0.219-0.398,0.544-0.539,0.977h-1.313c0.245-1.031,0.731-1.749,1.461-2.152c0.729-0.403,1.52-0.605,2.367-0.605
		c0.984,0,1.742,0.188,2.273,0.562c0.53,0.374,0.714,0.958,0.547,1.75l-1.023,4.82c-0.031,0.146-0.027,0.263,0.012,0.352
		c0.039,0.089,0.155,0.133,0.349,0.133c0.062,0,0.134-0.004,0.215-0.012c0.081-0.008,0.168-0.02,0.262-0.035l-0.227,1.039
		c-0.229,0.063-0.402,0.102-0.521,0.117c-0.117,0.015-0.273,0.023-0.473,0.023c-0.484,0-0.8-0.172-0.945-0.516
		c-0.078-0.182-0.104-0.44-0.078-0.773c-0.369,0.375-0.852,0.701-1.444,0.977c-0.593,0.276-1.214,0.414-1.859,0.414
		c-0.776,0-1.36-0.236-1.754-0.707c-0.394-0.471-0.515-1.061-0.363-1.77c0.167-0.776,0.538-1.377,1.113-1.805
		c0.575-0.427,1.267-0.69,2.074-0.789L691.91,107.649z M689.121,111.806c0.495,0,1-0.114,1.516-0.344
		c0.859-0.38,1.383-1.002,1.57-1.867l0.234-1.133c-0.192,0.109-0.434,0.201-0.72,0.273c-0.286,0.073-0.562,0.125-0.827,0.156
		L690.02,109c-0.526,0.068-0.934,0.175-1.22,0.32c-0.483,0.245-0.784,0.636-0.897,1.172c-0.09,0.406-0.01,0.727,0.237,0.961
		C688.387,111.687,688.715,111.806,689.121,111.806z"/>
	<path fill="#333333" d="M697.73,101.243h1.405l-2.438,11.477h-1.406L697.73,101.243z"/>
	<path fill="#333333" d="M706.785,105.665c0.191,0.422,0.275,0.914,0.25,1.477c0.005,0.386-0.083,1-0.266,1.844h-6.134
		c-0.155,0.849-0.101,1.53,0.168,2.043c0.27,0.513,0.796,0.77,1.582,0.77c0.734,0,1.37-0.242,1.906-0.727
		c0.312-0.281,0.56-0.606,0.742-0.978h1.383c-0.104,0.308-0.298,0.65-0.582,1.027c-0.284,0.378-0.579,0.687-0.887,0.926
		c-0.517,0.417-1.104,0.698-1.767,0.844c-0.358,0.083-0.753,0.125-1.18,0.125c-1.042,0-1.844-0.379-2.406-1.137
		c-0.562-0.758-0.697-1.819-0.406-3.184c0.287-1.344,0.884-2.435,1.789-3.273c0.906-0.838,1.948-1.258,3.125-1.258
		c0.595,0,1.142,0.14,1.642,0.418C706.246,104.862,706.593,105.223,706.785,105.665z M705.559,107.868
		c0.073-0.609,0.045-1.096-0.086-1.461c-0.238-0.677-0.81-1.016-1.711-1.016c-0.646,0-1.236,0.233-1.772,0.699
		c-0.536,0.466-0.896,1.059-1.078,1.777L705.559,107.868L705.559,107.868z"/>
</g>
<line fill="none" x1="558" y1="78" x2="570" y2="60"/>
<g>
	<g>
		<polygon fill="#4D4D4D" points="694.75,61 688,48.146 681.25,61 685,61 685,80 691,80 691,61 		"/>
	</g>
</g>
<g>
	<g>
		<polygon fill="#4D4D4D" points="577.75,65 571,55.359 564.25,65 568,65 568,79 574,79 574,65 		"/>
	</g>
</g>
<g>
	<rect x="319" y="329" fill="none" width="254" height="26"/>
	<path fill="#333333" d="M415.355,329.816h1.422l-0.5,2.336h1.336l-0.242,1.147h-1.336l-1.164,5.461
		c-0.063,0.292-0.005,0.487,0.172,0.586c0.099,0.059,0.276,0.086,0.531,0.086c0.066,0,0.141-0.001,0.219-0.004
		s0.172-0.009,0.281-0.02l-0.234,1.108c-0.172,0.048-0.348,0.081-0.527,0.103c-0.179,0.021-0.37,0.031-0.573,0.031
		c-0.656,0-1.066-0.168-1.23-0.504c-0.164-0.337-0.188-0.772-0.074-1.31l1.181-5.539h-1.133l0.241-1.147h1.134L415.355,329.816z"/>
	<path fill="#333333" d="M419.012,332.191h1.431l-1.767,8.327h-1.43L419.012,332.191z M419.684,329.043h1.431l-0.345,1.594h-1.43
		L419.684,329.043z"/>
	<path fill="#333333" d="M422.574,332.152h1.391l-0.25,1.188c0.422-0.411,0.786-0.711,1.094-0.897
		c0.531-0.317,1.092-0.478,1.681-0.478c0.667,0,1.169,0.164,1.508,0.492c0.188,0.188,0.336,0.464,0.445,0.828
		c0.411-0.448,0.851-0.78,1.315-0.996s0.962-0.324,1.488-0.324c1.125,0,1.805,0.406,2.039,1.219
		c0.125,0.438,0.109,1.026-0.047,1.767l-1.181,5.569h-1.461l1.234-5.812c0.114-0.558,0.055-0.94-0.18-1.148
		c-0.235-0.208-0.553-0.312-0.953-0.312c-0.552,0-1.066,0.185-1.543,0.555c-0.478,0.37-0.807,0.987-0.988,1.853l-1.031,4.866h-1.43
		l1.156-5.461c0.12-0.566,0.141-0.98,0.062-1.241c-0.13-0.392-0.486-0.587-1.07-0.587c-0.53,0-1.059,0.207-1.581,0.617
		c-0.523,0.411-0.899,1.156-1.13,2.234l-0.938,4.438h-1.406L422.574,332.152z"/>
	<path fill="#333333" d="M442.105,333.465c0.191,0.422,0.275,0.914,0.25,1.478c0.005,0.386-0.084,1-0.267,1.844h-6.133
		c-0.156,0.849-0.101,1.53,0.168,2.043s0.796,0.77,1.582,0.77c0.734,0,1.37-0.241,1.906-0.727c0.312-0.281,0.56-0.606,0.741-0.978
		h1.384c-0.104,0.309-0.298,0.649-0.582,1.027s-0.579,0.688-0.888,0.926c-0.516,0.417-1.104,0.698-1.766,0.845
		c-0.359,0.083-0.753,0.125-1.18,0.125c-1.042,0-1.844-0.38-2.406-1.138s-0.698-1.818-0.406-3.184
		c0.286-1.344,0.883-2.436,1.789-3.273s1.948-1.258,3.125-1.258c0.594,0,1.142,0.141,1.642,0.418
		C441.565,332.661,441.913,333.021,442.105,333.465z M440.879,335.668c0.073-0.609,0.044-1.097-0.086-1.461
		c-0.239-0.677-0.81-1.016-1.711-1.016c-0.646,0-1.237,0.232-1.773,0.698c-0.535,0.467-0.896,1.06-1.078,1.777L440.879,335.668
		L440.879,335.668z"/>
	<path fill="#333333" d="M444.418,337.895c-0.058,0.47-0.016,0.828,0.125,1.078c0.255,0.453,0.82,0.681,1.695,0.681
		c0.521,0,1.004-0.113,1.449-0.341c0.444-0.227,0.718-0.576,0.815-1.051c0.078-0.358-0.022-0.633-0.305-0.819
		c-0.177-0.114-0.55-0.247-1.117-0.398l-1.055-0.281c-0.678-0.177-1.161-0.375-1.453-0.594c-0.526-0.38-0.716-0.906-0.57-1.578
		c0.167-0.792,0.587-1.433,1.262-1.922c0.676-0.489,1.493-0.734,2.457-0.734c1.262,0,2.091,0.37,2.492,1.109
		c0.25,0.469,0.313,0.974,0.188,1.516h-1.328c0.042-0.316-0.012-0.605-0.156-0.866c-0.245-0.37-0.766-0.556-1.563-0.556
		c-0.53,0-0.953,0.103-1.27,0.306s-0.509,0.472-0.582,0.805c-0.078,0.364,0.039,0.656,0.352,0.875
		c0.184,0.13,0.467,0.245,0.853,0.344l0.883,0.228c0.958,0.244,1.586,0.48,1.883,0.711c0.47,0.358,0.62,0.925,0.453,1.694
		c-0.155,0.745-0.574,1.389-1.254,1.931s-1.598,0.812-2.754,0.812c-1.245,0-2.066-0.282-2.465-0.848
		c-0.399-0.566-0.527-1.266-0.387-2.099L444.418,337.895L444.418,337.895z"/>
	<path fill="#333333" d="M453.504,329.043h1.406l-2.438,11.477h-1.405L453.504,329.043z"/>
	<path fill="#333333" d="M456.348,332.191h1.431l-1.767,8.327h-1.43L456.348,332.191z M457.02,329.043h1.431l-0.345,1.594h-1.43
		L457.02,329.043z"/>
	<path fill="#333333" d="M464.473,332.41c0.22,0.156,0.445,0.43,0.681,0.82l0.897-4.228h1.353l-2.445,11.516h-1.266l0.241-1.163
		c-0.438,0.516-0.904,0.888-1.401,1.116c-0.497,0.229-1.035,0.345-1.613,0.345c-0.933,0-1.656-0.393-2.172-1.177
		c-0.517-0.783-0.633-1.826-0.353-3.129c0.256-1.219,0.789-2.273,1.603-3.168c0.813-0.894,1.797-1.34,2.953-1.34
		C463.59,332.004,464.098,332.14,464.473,332.41z M461.621,339.59c0.65,0,1.245-0.28,1.781-0.84c0.535-0.56,0.917-1.363,1.141-2.41
		c0.224-1.058,0.175-1.84-0.148-2.348c-0.322-0.508-0.802-0.762-1.438-0.762c-0.708,0-1.34,0.271-1.895,0.812
		c-0.556,0.541-0.944,1.339-1.168,2.391c-0.192,0.896-0.163,1.646,0.09,2.25C460.237,339.287,460.782,339.59,461.621,339.59z"/>
	<path fill="#333333" d="M475.012,333.465c0.192,0.422,0.276,0.914,0.25,1.478c0.005,0.386-0.083,1-0.266,1.844h-6.133
		c-0.156,0.849-0.102,1.53,0.168,2.043c0.269,0.513,0.796,0.77,1.582,0.77c0.733,0,1.37-0.241,1.906-0.727
		c0.312-0.281,0.56-0.606,0.741-0.978h1.384c-0.104,0.309-0.299,0.649-0.582,1.027c-0.284,0.378-0.579,0.688-0.888,0.926
		c-0.516,0.417-1.104,0.698-1.766,0.845c-0.359,0.083-0.753,0.125-1.181,0.125c-1.041,0-1.844-0.38-2.405-1.138
		c-0.563-0.758-0.698-1.818-0.406-3.184c0.286-1.344,0.883-2.436,1.789-3.273s1.948-1.258,3.125-1.258
		c0.594,0,1.141,0.141,1.641,0.418C474.472,332.661,474.819,333.021,475.012,333.465z M473.785,335.668
		c0.073-0.609,0.044-1.097-0.086-1.461c-0.239-0.677-0.811-1.016-1.711-1.016c-0.646,0-1.237,0.232-1.773,0.698
		c-0.536,0.467-0.896,1.06-1.078,1.777L473.785,335.668L473.785,335.668z"/>
	<path fill="#333333" d="M477.746,332.152h1.336l-0.305,1.444c0.167-0.28,0.507-0.624,1.02-1.026
		c0.514-0.403,1.048-0.605,1.605-0.605c0.025,0,0.069,0.003,0.133,0.008c0.063,0.006,0.167,0.017,0.312,0.031l-0.312,1.484
		c-0.083-0.017-0.159-0.026-0.228-0.031c-0.067-0.005-0.144-0.008-0.227-0.008c-0.708,0-1.301,0.228-1.777,0.684
		c-0.476,0.456-0.779,0.98-0.909,1.574l-1.017,4.812h-1.406L477.746,332.152z"/>
</g>
<g>
	<g>
		<polygon fill="#4D4D4D" points="452.75,306 446,296.761 439.25,306 443,306 443,320 449,320 449,306 		"/>
	</g>
</g>
<text transform="matrix(4.489659e-011 -1 1 4.489659e-011 18.0371 229.5)" font-family="'Arial-ItalicMT'" font-size="16">lock track</text>
<text transform="matrix(4.489659e-011 -1 1 4.489659e-011 42.0371 285.2266)" font-family="'Arial-ItalicMT'" font-size="16">show/hide viewer</text>
<text transform="matrix(4.489659e-011 -1 1 4.489659e-011 66.0371 212.1963)" font-family="'Arial-ItalicMT'" font-size="16">volume</text>
<text transform="matrix(4.489659e-011 -1 1 4.489659e-011 90.0371 199.8018)" font-family="'Arial-ItalicMT'" font-size="16">zoom</text>
<text transform="matrix(4.489659e-011 -1 1 4.489659e-011 114.0371 213.9697)" font-family="'Arial-ItalicMT'" font-size="16">remove</text>
</svg>
